Danny, a respected cop, is setup after an investigation goes wrong. While laying low in his new jail cell, Danny is forced to get involved in the inmates underground cage fighting circuit. With the help of Irving, a former mixed martial arts champion, Danny devises a scheme to bring justice and innocence to his family's name, if he can get out of the cage alive.
 
http://www.imdb.com/title/tt1597033/

Subtitles (srt) : Dutch, English.

Covers included.

Danny (Tony Schiena), een gerespecteerde agent, wordt erin geluisd nadat een politieonderzoek verkeerd afloopt en hij wordt overgebracht naar een staatsgevangenis. Hij probeert zichzelf rustig te houden in zijn cel en zijn tijd uit te zitten. De gevangenis wordt echter gerund door de maffiabaas Vargas (Vinnie Jones), die illegale kooigevechten houdt in het ketelhuis. Hoewel iedereen hem dood wil hebben ziet Vargas in hem een goede entertainer voor zijn gevechten. Ondertussen krijgt Danny hulp van Irving, een voormalig martial arts kampioen, die hem traint en voorziet van goede raad. Een agente van 'Internal Affairs' probeert Danny's onschuld te bewijzen en hem op vrije voeten te stellen. Als hij tenminste levend uit de kooi kan komen.
 
http://www.moviemeter.nl/film/69018

Ondertitels (srt) : Engels, Nederlands.

Hoesjes bijgevoegd. 

General
Complete name                    : Locked Down-AC3-XviD-DVDRip[Eng]2010 2Lions-Team\Locked Down-AC3-XviD-DVDRip[Eng]2010 2Lions-Team.avi
Format                           : AVI
Format/Info                      : Audio Video Interleave
File size                        : 1.36 GiB
Duration                         : 1h 38mn
Overall bit rate                 : 1 974 Kbps
Writing application              : VirtualDubMod 1.5.4.1 (build 2178/release)
Writing library                  : VirtualDubMod build 2178/release

Video
ID                               : 0
Format                           : MPEG-4 Visual
Format profile                   : Simple@L3
Format settings, BVOP            : No
Format settings, QPel            : No
Format settings, GMC             : No warppoints
Format settings, Matrix          : Default (H.263)
Codec ID                         : XVID
Codec ID/Hint                    : XviD
Duration                         : 1h 38mn
Bit rate                         : 1 581 Kbps
Width                            : 720 pixels
Height                           : 400 pixels
Display aspect ratio             : 16:9
Frame rate                       : 23.976 fps
Resolution                       : 8 bits
Colorimetry                      : 4:2:0
Scan type                        : Progressive
Bits/(Pixel*Frame)               : 0.229
Stream size                      : 1.09 GiB (80%)
Writing library                  : XviD 1.1.2 (UTC 2006-11-01)

Audio
ID                               : 1
Format                           : AC-3
Format/Info                      : Audio Coding 3
Codec ID                         : 2000
Duration                         : 1h 38mn
Bit rate mode                    : Constant
Bit rate                         : 384 Kbps
Channel(s)                       : 6 channels
Channel positions                : Front: L C R, Surround: L R, LFE
Sampling rate                    : 48.0 KHz
Stream size                      : 271 MiB (19%)
Alignment                        : Split accross interleaves
Interleave, duration             : 42 ms (1.00 video frame)
Interleave, preload duration     : 500 ms

Thanks to FGT-Releases for the source, and Dutch subs.Awesome job peeps!
 
Brought to you by Gollum.

DON T HIT AND RUN Niet gelijk afhaken als de FILM binnen is blijf seeden. 

Don`t quit after you finished the download, but keep seeding

There are fake torrents from uploaders who use our team name.
Those are not ours, or members from our team.
We 2Lions-Team are not responsible for the fake posts on our name

Wij 2Lions-Team zijn niet verantwoordelijk voor die zieke FAKE posten die op onze naam worden gedaan

Please check our site !!!

to the fakers , get a life !!!